<svg id="Layer_1" xmlns="http://www.w3.org/2000/svg" viewBox="0 0 500 300"><path d="m131.772,135.786s6.167,10.05,6.167,19.663c0,23.596-51.124,26.436-51.124,44.94,0,4.873,3.259,6.277,3.259,6.277,0,0-13.964-2.497-13.964-20.193,0-32.772,55.662-34.52,55.662-50.687Z" fill="#37b557" class="color1"></path><path d="m131.772,93.333s6.167,10.05,6.167,19.663c0,23.596-51.124,26.436-51.124,44.94,0,4.873,3.259,6.277,3.259,6.277,0,0-13.964-2.497-13.964-20.193,0-32.772,55.662-34.52,55.662-50.687Z" fill="#fa5e00" class="color2"></path><g><path d="m156.365,169.85l3.166-.792v-33.771l-3.166-.791v-.792h6.86c3.165,0,4.748,1.583,4.748,4.749v30.604l3.166.792v.791h-14.774v-.791Z" fill="#333" class="color0"></path><path d="m178.026,167.712c-2.48-2.479-3.721-5.9-3.721-10.263s1.24-7.783,3.721-10.264,5.9-3.72,10.263-3.72,7.783,1.24,10.263,3.72,3.721,5.902,3.721,10.264-1.24,7.783-3.721,10.263c-2.479,2.479-5.901,3.72-10.263,3.72s-7.783-1.24-10.263-3.72Zm13.824-.29c.967-1.97,1.451-5.294,1.451-9.973s-.484-8.002-1.451-9.973c-.968-1.97-2.155-2.955-3.562-2.955s-2.595.985-3.562,2.955c-.968,1.971-1.451,5.295-1.451,9.973s.483,8.003,1.451,9.973c.967,1.971,2.154,2.955,3.562,2.955s2.594-.984,3.562-2.955Z" fill="#333" class="color0"></path><path d="m206.493,169.85l3.166-.792v-23.218l-3.166-.791v-.791h4.749c2.075,0,3.711.668,4.907,2.005.457.528.845,1.179,1.161,1.952.527-.773,1.178-1.477,1.952-2.11,1.759-1.407,3.729-2.11,5.91-2.11,1.864,0,3.263.431,4.194,1.293.932.861,1.398,2.102,1.398,3.719,0,1.197-.361,2.156-1.081,2.877-.722.721-1.681,1.081-2.876,1.081-.493,0-.985-.034-1.478-.105l-.633-.158v-7.388c-1.795,0-3.431.705-4.907,2.111-.704.703-1.267,1.407-1.689,2.11v19.523l3.166.792v.791h-14.774v-.791Z" fill="#333" class="color0"></path><path d="m236.886,167.712c-2.498-2.479-3.747-5.9-3.747-10.263,0-2.85.545-5.33,1.636-7.439,1.09-2.111,2.612-3.729,4.564-4.855,1.952-1.125,4.195-1.688,6.728-1.688s4.758.476,6.675,1.425c1.917.949,3.395,2.226,4.433,3.826,1.037,1.601,1.557,3.368,1.557,5.303,0,.879-.088,1.636-.264,2.269l-.264.897c-1.513.316-3.148.58-4.907.791-3.695.527-7.423.791-11.187.791,0,4.082.562,6.992,1.688,8.733,1.125,1.741,2.673,2.612,4.644,2.612,1.372,0,2.647-.325,3.826-.977,1.179-.65,2.11-1.512,2.797-2.586.686-1.072,1.028-2.172,1.028-3.297h1.319c0,1.406-.422,2.743-1.267,4.01-.844,1.266-2.022,2.277-3.535,3.034-1.513.756-3.254,1.134-5.224,1.134-4.503,0-8.003-1.24-10.5-3.72Zm10.711-10.526c.598-.035,1.231-.123,1.899-.264.035-.176.123-.562.265-1.161.175-.879.264-1.812.264-2.797,0-2.919-.388-5.056-1.161-6.411-.774-1.354-1.707-2.031-2.797-2.031-2.638,0-3.957,4.31-3.957,12.928,2.251,0,4.08-.088,5.487-.264Z" fill="#333" class="color0"></path><path d="m262.689,169.85l3.166-.792v-23.218l-3.166-.791v-.791h4.749c2.075,0,3.711.668,4.907,2.005.457.528.845,1.179,1.161,1.952.527-.984,1.09-1.775,1.688-2.375,1.583-1.582,3.395-2.374,5.435-2.374s3.834.448,5.383,1.346c1.547.897,2.743,2.12,3.588,3.667.527-1.02,1.09-1.847,1.688-2.479,1.617-1.688,3.43-2.533,5.435-2.533,1.864,0,3.544.388,5.039,1.161s2.656,1.83,3.483,3.166c.826,1.338,1.239,2.797,1.239,4.379v16.886l3.166.792v.791h-6.859c-3.166,0-4.749-1.583-4.749-4.749v-13.72c0-2.285-.352-4-1.056-5.145-.704-1.143-1.495-1.715-2.374-1.715-1.021,0-2.058.705-3.113,2.111-.422.668-.791,1.371-1.108,2.11v19.523l3.166.792v.791h-14.774v-.791l3.166-.792v-16.886c0-2.285-.352-4-1.055-5.145-.704-1.143-1.496-1.715-2.375-1.715-1.021,0-2.058.705-3.113,2.111-.422.668-.791,1.371-1.108,2.11v19.523l3.166.792v.791h-14.774v-.791Z" fill="#333" class="color0"></path><path d="m312.817,169.85l3.166-.792v-33.771l-3.166-.791v-.792h6.86c3.165,0,4.748,1.583,4.748,4.749v30.604l3.166.792v.791h-14.774v-.791Z" fill="#333" class="color0"></path><path d="m334.479,167.712c-2.48-2.479-3.721-5.9-3.721-10.263s1.24-7.783,3.721-10.264,5.9-3.72,10.263-3.72,7.783,1.24,10.263,3.72,3.721,5.902,3.721,10.264-1.24,7.783-3.721,10.263c-2.479,2.479-5.901,3.72-10.263,3.72s-7.783-1.24-10.263-3.72Zm13.824-.29c.967-1.97,1.451-5.294,1.451-9.973s-.484-8.002-1.451-9.973c-.968-1.97-2.155-2.955-3.562-2.955s-2.595.985-3.562,2.955c-.968,1.971-1.451,5.295-1.451,9.973s.483,8.003,1.451,9.973c.967,1.971,2.154,2.955,3.562,2.955s2.594-.984,3.562-2.955Z" fill="#333" class="color0"></path><path d="m367.693,181.141c-1.971-.562-3.386-1.284-4.247-2.163-.862-.88-1.293-1.812-1.293-2.796,0-1.197.36-2.156,1.081-2.877s1.68-1.081,2.876-1.081c.281,0,.792.053,1.53.158l.581.105v7.388c.422.14,1.09.316,2.005.527,1.617.352,3.147.527,4.591.527,4.291,0,7.431-.606,9.418-1.82,1.987-1.213,2.981-2.717,2.981-4.512,0-2.287-2.11-3.43-6.332-3.43h-10.025c-2.638,0-4.661-.545-6.068-1.635-1.407-1.091-2.11-2.48-2.11-4.17s.826-3.183,2.48-4.484c.668-.492,1.512-.932,2.532-1.319-1.302-.809-2.242-1.768-2.823-2.876-.58-1.107-.87-2.436-.87-3.983,0-2.603.984-4.704,2.955-6.306,1.97-1.6,4.854-2.4,8.653-2.4,1.653,0,3.175.167,4.564.501,1.39.335,2.506.783,3.351,1.345.281-.598.65-1.125,1.108-1.582,1.055-1.056,2.356-1.584,3.904-1.584,1.195,0,2.198.414,3.008,1.24.809.828,1.214,1.909,1.214,3.246,0,1.02-.273,1.846-.818,2.479-.546.634-1.24.95-2.084.95-.388,0-.827-.035-1.319-.105l-.527-.158v-6.332c-.915,0-1.777.439-2.586,1.318-.316.316-.599.758-.844,1.319,1.758,1.548,2.638,3.571,2.638,6.068,0,2.604-.985,4.705-2.955,6.306-1.97,1.602-4.854,2.4-8.653,2.4-2.532,0-4.819-.439-6.859-1.318l-1.056.527c-.352.211-.615.414-.791.606-.177.194-.264.431-.264.712,0,.6.307,1.057.923,1.373.615.316,1.715.475,3.298.475h10.025c2.639,0,4.705.765,6.2,2.295s2.243,3.668,2.243,6.411c0,2.813-1.17,5.101-3.51,6.86-2.34,1.758-5.83,2.638-10.474,2.638-3.132,0-5.682-.282-7.651-.845Zm10.633-22.479c.65-1.125.976-3.113.976-5.962s-.325-4.837-.976-5.962c-.651-1.126-1.557-1.689-2.718-1.689s-2.066.563-2.718,1.689c-.651,1.125-.976,3.112-.976,5.962s.324,4.837.976,5.962c.651,1.127,1.557,1.689,2.718,1.689s2.066-.562,2.718-1.689Z" fill="#333" class="color0"></path><path d="m397.534,167.712c-2.48-2.479-3.721-5.9-3.721-10.263s1.24-7.783,3.721-10.264,5.9-3.72,10.263-3.72,7.783,1.24,10.263,3.72,3.721,5.902,3.721,10.264-1.24,7.783-3.721,10.263c-2.479,2.479-5.901,3.72-10.263,3.72s-7.783-1.24-10.263-3.72Zm13.824-.29c.967-1.97,1.451-5.294,1.451-9.973s-.484-8.002-1.451-9.973c-.968-1.97-2.155-2.955-3.562-2.955s-2.595.985-3.562,2.955c-.968,1.971-1.451,5.295-1.451,9.973s.483,8.003,1.451,9.973c.967,1.971,2.154,2.955,3.562,2.955s2.594-.984,3.562-2.955Z" fill="#333" class="color0"></path></g></svg>